<svg width="627" height="581" viewBox="0 0 627 581" fill="none" xmlns="http://www.w3.org/2000/svg">
<path d="M626.52 85V493.427C626.52 513.588 610.093 530.015 589.932 530.015H458.52C428.656 530.015 398.785 539.723 374.895 558.389C357.723 571.827 336.067 580.04 312.921 580.04C289.776 580.04 268.119 571.826 250.948 558.389C227.052 539.723 197.932 530.015 167.323 530.015H37.4015C17.2401 530.015 0.813477 513.588 0.813477 493.427V85C0.813477 64.8386 17.2401 48.412 37.4015 48.412H62.0415V212.679V408.305C62.0415 422.493 69.5103 434.441 87.4268 434.441H148.656C180.76 434.441 211.375 437.426 241.989 447.879C262.896 455.347 282.307 465.8 297.989 482.228C306.948 491.936 320.391 491.936 329.349 482.973C354.735 456.837 386.844 445.639 421.938 439.666C456.287 433.692 491.375 435.932 525.724 435.187H541.407C558.579 434.442 566.792 426.228 566.792 409.051V315.718V49.9042H590.688C610.095 48.4146 626.522 64.8416 626.522 85.0029L626.52 85ZM105.347 1.37464V390.388C105.347 390.388 224.816 380.68 290.52 421.003V31.9893C224.812 -8.33337 105.347 1.37464 105.347 1.37464V1.37464ZM336.067 31.984V420.997C401.775 380.68 521.24 390.383 521.24 390.383V1.36931C521.24 1.37451 401.771 -8.33376 336.067 31.984V31.984Z" fill="white"/>
</svg>
