<svg width="23" height="23" viewBox="0 0 31 23" fill="none" xmlns="http://www.w3.org/2000/svg">
<path d="M25.4609 2.54297C25.4609 2.54297 25.4609 2.54297 25.4121 2.54297C23.6055 1.71289 21.6035 1.07812 19.6016 0.736328C19.5527 0.736328 19.5527 0.6875 19.5527 0.6875L19.5039 0.736328C19.2109 1.22461 18.9668 1.76172 18.7715 2.25C17.6973 2.10352 16.5742 2.00586 15.4512 2.00586C14.3281 2.00586 13.2539 2.10352 12.1797 2.25C11.9844 1.76172 11.7402 1.22461 11.4473 0.736328H11.3984C11.3496 0.736328 11.3496 0.736328 11.3496 0.736328C9.34766 1.07812 7.3457 1.71289 5.53906 2.54297C5.49023 2.54297 5.49023 2.54297 5.49023 2.54297C1.7793 8.10938 0.753906 13.5293 1.24219 18.9004C1.24219 18.9004 1.24219 18.9492 1.29102 18.9492C3.39062 20.5605 5.83203 21.7812 8.46875 22.5625C8.51758 22.5625 8.51758 22.5625 8.56641 22.5625C9.10352 21.7812 9.5918 21 10.0312 20.1699V20.1211C10.0312 20.0723 9.98242 20.0723 9.98242 20.0234C9.20117 19.7305 8.41992 19.3887 7.73633 18.9492C7.6875 18.9492 7.6875 18.9492 7.6875 18.9004C7.6875 18.8516 7.6875 18.8516 7.73633 18.8027C7.88281 18.7051 8.0293 18.6074 8.17578 18.4609C8.17578 18.4609 8.17578 18.4609 8.22461 18.4609C8.22461 18.4609 8.22461 18.4609 8.27344 18.4609C12.9609 20.6094 18.0391 20.6094 22.6777 18.4609H22.7266H22.7754C22.9219 18.6074 23.0684 18.7051 23.2148 18.8027C23.2637 18.8516 23.2637 18.8516 23.2637 18.9004C23.2637 18.9492 23.2637 18.9492 23.2148 18.9492C22.4824 19.3887 21.75 19.7305 20.9688 20.0234C20.9199 20.0723 20.9199 20.0723 20.9199 20.1211V20.1699C21.3594 21 21.8477 21.7812 22.3848 22.5625C22.3848 22.5625 22.4336 22.5625 22.4824 22.5625C25.0703 21.7812 27.5117 20.5605 29.6602 18.9492C29.709 18.9492 29.709 18.9004 29.709 18.9004C30.2949 12.6992 28.6836 7.32812 25.4609 2.54297ZM10.7148 15.6289C9.29883 15.6289 8.12695 14.3105 8.12695 12.748C8.12695 11.1367 9.29883 9.86719 10.7148 9.86719C12.1797 9.86719 13.3027 11.1367 13.3027 12.748C13.3027 14.3105 12.1309 15.6289 10.7148 15.6289ZM20.2363 15.6289C18.8203 15.6289 17.6973 14.3105 17.6973 12.748C17.6973 11.1367 18.8203 9.86719 20.2363 9.86719C21.7012 9.86719 22.873 11.1367 22.8242 12.748C22.8242 14.3105 21.7012 15.6289 20.2363 15.6289Z" fill="white"/>
</svg>
