<svg width="25" height="25" viewBox="0 0 25 25" fill="none" xmlns="http://www.w3.org/2000/svg">
<path d="M8.44727 19.5586C8.44727 19.4609 8.34961 19.3633 8.20312 19.3633C8.05664 19.3633 7.95898 19.4609 7.95898 19.5586C7.95898 19.6562 8.05664 19.7539 8.20312 19.7051C8.34961 19.7051 8.44727 19.6562 8.44727 19.5586ZM6.93359 19.3145C6.93359 19.4121 7.03125 19.5586 7.17773 19.5586C7.27539 19.6074 7.42188 19.5586 7.4707 19.4609C7.4707 19.3633 7.42188 19.2656 7.27539 19.2168C7.12891 19.168 6.98242 19.2168 6.93359 19.3145ZM9.13086 19.2656C8.98438 19.2656 8.88672 19.3633 8.88672 19.5098C8.88672 19.6074 9.0332 19.6562 9.17969 19.6074C9.32617 19.5586 9.42383 19.5098 9.375 19.4121C9.375 19.3145 9.22852 19.2168 9.13086 19.2656ZM12.3047 0.515625C5.56641 0.515625 0.390625 5.69141 0.390625 12.4297C0.390625 17.8496 3.75977 22.4883 8.64258 24.1484C9.27734 24.2461 9.47266 23.8555 9.47266 23.5625C9.47266 23.2207 9.47266 21.5605 9.47266 20.5352C9.47266 20.5352 6.05469 21.2676 5.32227 19.0703C5.32227 19.0703 4.78516 17.6543 4.00391 17.3125C4.00391 17.3125 2.88086 16.5312 4.05273 16.5312C4.05273 16.5312 5.27344 16.6289 5.95703 17.8008C7.03125 19.7051 8.78906 19.168 9.52148 18.8262C9.61914 18.0449 9.91211 17.5078 10.3027 17.166C7.56836 16.873 4.78516 16.4824 4.78516 11.7949C4.78516 10.4277 5.17578 9.79297 5.95703 8.91406C5.81055 8.57227 5.41992 7.30273 6.10352 5.59375C7.08008 5.30078 9.47266 6.91211 9.47266 6.91211C10.4492 6.61914 11.4746 6.52148 12.5 6.52148C13.5742 6.52148 14.5996 6.61914 15.5762 6.91211C15.5762 6.91211 17.9199 5.25195 18.9453 5.59375C19.6289 7.30273 19.1895 8.57227 19.0918 8.91406C19.873 9.79297 20.3613 10.4277 20.3613 11.7949C20.3613 16.4824 17.4805 16.873 14.7461 17.166C15.1855 17.5566 15.5762 18.2891 15.5762 19.4609C15.5762 21.0723 15.5273 23.123 15.5273 23.5137C15.5273 23.8555 15.7715 24.2461 16.4062 24.0996C21.2891 22.4883 24.6094 17.8496 24.6094 12.4297C24.6094 5.69141 19.0918 0.515625 12.3047 0.515625ZM5.12695 17.3613C5.0293 17.4102 5.07812 17.5566 5.12695 17.6543C5.22461 17.7031 5.32227 17.752 5.41992 17.7031C5.46875 17.6543 5.46875 17.5078 5.37109 17.4102C5.27344 17.3613 5.17578 17.3125 5.12695 17.3613ZM4.58984 16.9707C4.54102 17.0684 4.58984 17.1172 4.6875 17.166C4.78516 17.2148 4.88281 17.2148 4.93164 17.1172C4.93164 17.0684 4.88281 17.0195 4.78516 16.9707C4.6875 16.9219 4.63867 16.9219 4.58984 16.9707ZM6.15234 18.7285C6.10352 18.7773 6.10352 18.9238 6.25 19.0215C6.34766 19.1191 6.49414 19.168 6.54297 19.0703C6.5918 19.0215 6.5918 18.875 6.49414 18.7773C6.39648 18.6797 6.25 18.6309 6.15234 18.7285ZM5.61523 17.9961C5.51758 18.0449 5.51758 18.1914 5.61523 18.2891C5.71289 18.3867 5.81055 18.4355 5.9082 18.3867C5.95703 18.3379 5.95703 18.1914 5.9082 18.0938C5.81055 17.9961 5.71289 17.9473 5.61523 17.9961Z" fill="#FFFFFF"/>
</svg>
