<svg width="666" height="542" viewBox="0 0 666 542" fill="none" xmlns="http://www.w3.org/2000/svg">
<path d="M478.427 1.04144C424.181 -1.49496 371.348 18.7388 332.667 56.8588C293.26 18.0614 239.235 -2.18256 184.027 1.15611C128.824 4.49464 77.636 31.1095 43.2 74.3748C13.9814 110.38 -1.31595 155.692 0.0960485 202.036C1.51272 248.385 19.544 292.676 50.8987 326.833C122.763 405.115 215.699 476.98 327.165 540.38C330.603 542.333 334.811 542.333 338.249 540.38C449.681 476.911 542.609 405.087 614.475 326.833C645.835 292.677 663.861 248.385 665.278 202.036C666.69 155.692 651.393 110.38 622.174 74.3748C587.054 30.3695 534.669 3.64544 478.427 1.04144H478.427ZM597.943 311.655C528.839 386.957 439.609 456.282 332.676 517.775C225.733 456.28 136.516 386.957 67.4094 311.695C38.0654 279.075 22.2161 236.517 23.0867 192.648C23.9513 148.779 41.4721 106.877 72.0867 75.4455C102.707 44.0135 144.128 25.4041 187.961 23.3828C190.649 23.2526 193.331 23.1901 196.003 23.1953C242.758 23.1901 287.508 42.2113 319.951 75.8833C321.446 77.451 322.956 79.0396 324.482 80.6541C328.993 85.1593 336.305 85.1593 340.821 80.6541C342.316 79.0396 343.826 77.451 345.362 75.8729H345.357C387.764 31.9876 450.169 13.7276 509.544 27.8262C568.913 41.9249 616.445 86.2956 634.596 144.561C652.741 202.821 638.815 266.337 597.951 311.654L597.943 311.655Z" fill="white"/>
<path d="M469.307 45.6002C428.614 45.4335 389.635 61.9856 361.504 91.3922C360.009 92.887 358.608 94.4234 357.145 95.9756H357.14C350.791 102.731 341.932 106.564 332.661 106.564C323.39 106.564 314.53 102.731 308.182 95.9756L303.823 91.3922C275.708 61.9909 236.744 45.4229 196.063 45.5802C157.079 45.5385 119.599 60.6269 91.5163 87.6736C63.4377 114.72 46.9537 151.611 45.5323 190.57C44.1105 229.528 57.8657 267.523 83.9017 296.539C147.74 366.075 229.502 430.659 326.955 488.499V488.504C330.481 490.598 334.866 490.598 338.392 488.504C435.856 430.649 517.632 366.051 581.446 296.544V296.539C607.472 267.523 621.216 229.544 619.795 190.591C618.378 151.643 601.899 114.763 573.831 87.7162C545.763 60.6749 508.295 45.5762 469.32 45.6015L469.307 45.6002ZM564.932 281.387C503.85 347.934 425.719 409.971 332.666 465.814C239.639 409.98 161.519 347.954 100.399 281.387C78.3162 256.663 66.6749 224.34 67.9349 191.21C69.1901 158.079 83.2415 126.731 107.138 103.751C131.034 80.7709 162.908 67.9535 196.059 67.9909C230.652 67.8607 263.783 81.9442 287.69 106.944L291.861 111.34H291.867C302.45 122.595 317.211 128.976 332.659 128.976C348.107 128.976 362.872 122.596 373.456 111.34L377.628 106.949C401.545 81.9334 434.696 67.8454 469.305 67.9907C502.45 67.9647 534.316 80.7877 558.201 103.767C582.086 126.751 596.133 158.095 597.389 191.215C598.644 224.34 587.009 256.657 564.93 281.381L564.932 281.387Z" fill="white"/>
</svg>
