<svg width="672" height="548" viewBox="0 0 672 548" fill="none" xmlns="http://www.w3.org/2000/svg">
<path d="M481.427 4.04144C427.181 1.50504 374.348 21.7388 335.667 59.8588C296.26 21.0614 242.235 0.817441 187.027 4.15611C131.824 7.49464 80.636 34.1095 46.2 77.3748C16.9814 113.38 1.68405 158.692 3.09605 205.036C4.51272 251.385 22.544 295.676 53.8987 329.833C125.763 408.115 218.699 479.98 330.165 543.38C333.603 545.333 337.811 545.333 341.249 543.38C452.681 479.911 545.609 408.087 617.475 329.833C648.835 295.677 666.861 251.385 668.278 205.036C669.69 158.692 654.393 113.38 625.174 77.3748C590.054 33.3695 537.669 6.64544 481.427 4.04144H481.427ZM600.943 314.655C531.839 389.957 442.609 459.282 335.676 520.775C228.733 459.28 139.516 389.957 70.4094 314.695C41.0654 282.075 25.2161 239.517 26.0867 195.648C26.9513 151.779 44.4721 109.877 75.0867 78.4455C105.707 47.0135 147.128 28.4041 190.961 26.3828C193.649 26.2526 196.331 26.1901 199.003 26.1953C245.758 26.1901 290.508 45.2113 322.951 78.8833C324.446 80.451 325.956 82.0396 327.482 83.6541C331.993 88.1593 339.305 88.1593 343.821 83.6541C345.316 82.0396 346.826 80.451 348.362 78.8729H348.357C390.764 34.9876 453.169 16.7276 512.544 30.8262C571.913 44.9249 619.445 89.2956 637.596 147.561C655.741 205.821 641.815 269.337 600.951 314.654L600.943 314.655Z" fill="white" stroke="white" stroke-width="6"/>
<path d="M472.307 48.6002C431.614 48.4335 392.635 64.9856 364.504 94.3922C363.009 95.887 361.608 97.4234 360.145 98.9756H360.14C353.791 105.731 344.932 109.564 335.661 109.564C326.39 109.564 317.53 105.731 311.182 98.9756L306.823 94.3922C278.708 64.9909 239.744 48.4229 199.063 48.5802C160.079 48.5385 122.599 63.6269 94.5163 90.6736C66.4377 117.72 49.9537 154.611 48.5323 193.57C47.1105 232.528 60.8657 270.523 86.9017 299.539C150.74 369.075 232.502 433.659 329.955 491.499V491.504C333.481 493.598 337.866 493.598 341.392 491.504C438.856 433.649 520.632 369.051 584.446 299.544V299.539C610.472 270.523 624.216 232.544 622.795 193.591C621.378 154.643 604.899 117.763 576.831 90.7162C548.763 63.6749 511.295 48.5762 472.32 48.6015L472.307 48.6002ZM567.932 284.387C506.85 350.934 428.719 412.971 335.666 468.814C242.639 412.98 164.519 350.954 103.399 284.387C81.3162 259.663 69.6749 227.34 70.9349 194.21C72.1901 161.079 86.2415 129.731 110.138 106.751C134.034 83.7709 165.908 70.9535 199.059 70.9909C233.652 70.8607 266.783 84.9442 290.69 109.944L294.861 114.34H294.867C305.45 125.595 320.211 131.976 335.659 131.976C351.107 131.976 365.872 125.596 376.456 114.34L380.628 109.949C404.545 84.9334 437.696 70.8454 472.305 70.9907C505.45 70.9647 537.316 83.7877 561.201 106.767C585.087 129.751 599.133 161.095 600.389 194.215C601.644 227.34 590.009 259.657 567.93 284.381L567.932 284.387Z" fill="white" stroke="white" stroke-width="19"/>
</svg>
