<svg width="595" height="519" viewBox="0 0 595 519" fill="none" xmlns="http://www.w3.org/2000/svg">
<path fill-rule="evenodd" clip-rule="evenodd" d="M351.773 502.813C335.576 513.928 317.205 519.089 298.669 517.808C297.997 517.756 297.331 517.756 296.659 517.808C278.091 519.12 259.752 513.928 243.555 502.813C73.9149 386.412 -13.9518 254.867 2.48822 141.907C11.6705 78.8438 54.3682 27.7039 113.926 8.47985C130.186 3.22985 146.718 0.662109 163.16 0.662109C208.16 0.662109 252.343 19.9168 287.426 56.1515C292.806 61.7036 302.556 61.7036 307.936 56.1515C355.832 6.68211 420.691 -11.1245 481.416 8.47945C540.974 27.7195 583.676 78.8395 592.854 141.906C609.291 254.885 521.416 386.413 351.774 502.813L351.773 502.813Z" fill="white"/>
</svg>
