<svg width="20" height="20" viewBox="0 0 23 23" fill="#FFFFFF" xmlns="http://www.w3.org/2000/svg">
<path d="M11.6807 6.00977C8.55566 6.00977 6.06543 8.54883 6.06543 11.625C6.06543 14.75 8.55566 17.2402 11.6807 17.2402C14.7568 17.2402 17.2959 14.75 17.2959 11.625C17.2959 8.54883 14.7568 6.00977 11.6807 6.00977ZM11.6807 15.2871C9.67871 15.2871 8.01855 13.6758 8.01855 11.625C8.01855 9.62305 9.62988 8.01172 11.6807 8.01172C13.6826 8.01172 15.2939 9.62305 15.2939 11.625C15.2939 13.6758 13.6826 15.2871 11.6807 15.2871ZM18.8096 5.81445C18.8096 5.08203 18.2236 4.49609 17.4912 4.49609C16.7588 4.49609 16.1729 5.08203 16.1729 5.81445C16.1729 6.54688 16.7588 7.13281 17.4912 7.13281C18.2236 7.13281 18.8096 6.54688 18.8096 5.81445ZM22.5205 7.13281C22.4229 5.375 22.0322 3.8125 20.7627 2.54297C19.4932 1.27344 17.9307 0.882812 16.1729 0.785156C14.3662 0.6875 8.94629 0.6875 7.13965 0.785156C5.38184 0.882812 3.86816 1.27344 2.5498 2.54297C1.28027 3.8125 0.889648 5.375 0.791992 7.13281C0.694336 8.93945 0.694336 14.3594 0.791992 16.166C0.889648 17.9238 1.28027 19.4375 2.5498 20.7559C3.86816 22.0254 5.38184 22.416 7.13965 22.5137C8.94629 22.6113 14.3662 22.6113 16.1729 22.5137C17.9307 22.416 19.4932 22.0254 20.7627 20.7559C22.0322 19.4375 22.4229 17.9238 22.5205 16.166C22.6182 14.3594 22.6182 8.93945 22.5205 7.13281ZM20.1768 18.0703C19.835 19.0469 19.0537 19.7793 18.126 20.1699C16.6611 20.7559 13.2432 20.6094 11.6807 20.6094C10.0693 20.6094 6.65137 20.7559 5.23535 20.1699C4.25879 19.7793 3.52637 19.0469 3.13574 18.0703C2.5498 16.6543 2.69629 13.2363 2.69629 11.625C2.69629 10.0625 2.5498 6.64453 3.13574 5.17969C3.52637 4.25195 4.25879 3.51953 5.23535 3.12891C6.65137 2.54297 10.0693 2.68945 11.6807 2.68945C13.2432 2.68945 16.6611 2.54297 18.126 3.12891C19.0537 3.4707 19.7861 4.25195 20.1768 5.17969C20.7627 6.64453 20.6162 10.0625 20.6162 11.625C20.6162 13.2363 20.7627 16.6543 20.1768 18.0703Z"/>
</svg>
