<?xml version="1.0" encoding="iso-8859-1"?>
<!-- Uploaded to: SVG Repo, www.svgrepo.com, Generator: SVG Repo Mixer Tools -->
<svg fill="#FFFFFF" height="800px" width="800px" version="1.1" id="Layer_1" xmlns="http://www.w3.org/2000/svg" xmlns:xlink="http://www.w3.org/1999/xlink" 
	 viewBox="0 0 300.14 300.14" xml:space="preserve">
<g>
	<g>
		<path d="M297.757,2.401C296.663,1.293,294.696,0,291.483,0C267.32,0,95.754,94.552,79.909,186.627
			c-0.013,0.077-0.015,0.154-0.026,0.231c-2.883-0.598-5.848-0.912-8.863-0.912c-11.524,0-22.36,4.486-30.513,12.645
			C25.275,213.83,0.005,265.334,0.005,293.26c0,3.805,3.075,6.88,6.88,6.88c27.94,0,79.423-25.277,94.662-40.503
			c10.663-10.667,14.556-25.582,11.698-39.362c0.112-0.013,0.222-0.021,0.335-0.039c87.17-15.721,173.913-168.319,185.113-204.143
			C299.759,12.707,301.734,6.378,297.757,2.401z M91.804,249.909c-11.51,11.517-52.254,31.951-77.393,35.824
			c3.86-25.126,24.314-65.897,35.824-77.414c5.552-5.552,12.934-8.614,20.784-8.614c7.85,0,15.239,3.062,20.791,8.614
			C103.266,219.782,103.266,238.447,91.804,249.909z M94.13,185.526c3.337-15.31,11.299-30.639,22.195-45.493l43.234,43.218
			c-14.85,11.142-30.033,19.302-44.968,22.73L94.13,185.526z M170.357,174.592l-45.466-45.448
			C172.258,72.724,257.56,25.27,284.548,15.576C274.657,42.731,225.944,127.17,170.357,174.592z"/>
	</g>
</g>
</svg>