<svg width="23" height="26" viewBox="0 0 23 26" fill="none" xmlns="http://www.w3.org/2000/svg">
<path d="M22.498 10.8789V6.63086C22.4492 6.63086 22.4492 6.63086 22.4492 6.63086C21.2773 6.63086 20.1543 6.28906 19.2266 5.6543C17.8594 4.77539 16.8828 3.35938 16.5898 1.74805C16.4922 1.40625 16.4922 1.06445 16.4922 0.722656C16.4922 0.673828 16.4922 0.673828 16.4922 0.625H12.1953V17.7148C12.1953 19.7168 10.5352 21.377 8.5332 21.377C6.53125 21.377 4.87109 19.7168 4.87109 17.7148C4.87109 15.7129 6.53125 14.0527 8.5332 14.0527C8.92383 14.0527 9.26562 14.1016 9.65625 14.248V9.85352C9.26562 9.80469 8.92383 9.75586 8.5332 9.75586C4.13867 9.75586 0.623047 13.3203 0.623047 17.7148C0.623047 22.1094 4.13867 25.625 8.5332 25.625C12.9277 25.625 16.4922 22.1094 16.4922 17.7148V8.97461C18.1523 10.1953 20.2031 10.8789 22.4492 10.8789H22.498Z" fill="#FFFFFF"/>
</svg>
