<svg width="26" height="21" viewBox="0 0 26 21" fill="none" xmlns="http://www.w3.org/2000/svg">
<path d="M22.6533 5.54688C23.6299 4.81445 24.5088 3.93555 25.1924 2.91016C24.3135 3.30078 23.2881 3.59375 22.2627 3.69141C23.3369 3.05664 24.1182 2.08008 24.5088 0.859375C23.5322 1.44531 22.4092 1.88477 21.2861 2.12891C20.3096 1.10352 18.9912 0.517578 17.5264 0.517578C14.6943 0.517578 12.3994 2.8125 12.3994 5.64453C12.3994 6.03516 12.4482 6.42578 12.5459 6.81641C8.29785 6.57227 4.48926 4.52148 1.9502 1.44531C1.51074 2.17773 1.2666 3.05664 1.2666 4.0332C1.2666 5.79102 2.14551 7.35352 3.56152 8.28125C2.73145 8.23242 1.90137 8.03711 1.21777 7.64648V7.69531C1.21777 10.1855 2.97559 12.2363 5.31934 12.7246C4.92871 12.8223 4.44043 12.9199 4.00098 12.9199C3.65918 12.9199 3.36621 12.8711 3.02441 12.8223C3.65918 14.873 5.56348 16.3379 7.80957 16.3867C6.05176 17.7539 3.85449 18.584 1.46191 18.584C1.02246 18.584 0.631836 18.5352 0.241211 18.4863C2.4873 19.9512 5.17285 20.7812 8.10254 20.7812C17.5264 20.7812 22.6533 13.0176 22.6533 6.23047C22.6533 5.98633 22.6533 5.79102 22.6533 5.54688Z" fill="#FFFFFF"/>
</svg>
