<svg width="20" height="19" viewBox="0 0 27 19" fill="#FFFFFF" xmlns="http://www.w3.org/2000/svg">
<path d="M26.3647 3.22852C26.0718 2.05664 25.144 1.12891 24.021 0.835938C21.9214 0.25 13.6206 0.25 13.6206 0.25C13.6206 0.25 5.271 0.25 3.17139 0.835938C2.04834 1.12891 1.12061 2.05664 0.827637 3.22852C0.241699 5.2793 0.241699 9.67383 0.241699 9.67383C0.241699 9.67383 0.241699 14.0195 0.827637 16.1191C1.12061 17.291 2.04834 18.1699 3.17139 18.4629C5.271 19 13.6206 19 13.6206 19C13.6206 19 21.9214 19 24.021 18.4629C25.144 18.1699 26.0718 17.291 26.3647 16.1191C26.9507 14.0195 26.9507 9.67383 26.9507 9.67383C26.9507 9.67383 26.9507 5.2793 26.3647 3.22852ZM10.8862 13.6289V5.71875L17.8198 9.67383L10.8862 13.6289Z"/>
</svg>
